# xmcd
#
# Track frame offsets:
# 150
# 18512
# 38110
# 51022
# 76080
# 88837
# 107602
# 145727
# 168695
# 190487
# 207927
# 216970
#
# Disc length: 3226 seconds
#
#
# Revision: 0
# Processed by: cddbd v1.5.2PL0 Copyright (c) Steve Scherf et al.
# Submitted via: Nero 7, 11, 10, 0 
#
DISCID=a50c980c
DTITLE=Larrie Cook and The Bluesmasters - Live
DYEAR=1997
DGENRE=Blues
TTITLE0=Move Up To The Country
TTITLE1=Sweet Momma
TTITLE2=T-Bone Shuffle
TTITLE3=Got To Have You
TTITLE4=Time To Have A Party
TTITLE5=Born In Chicago
TTITLE6=Blues City
TTITLE7=Black Cat Bone
TTITLE8=Break'n My Back Blues
TTITLE9=Teenie Weenie Bit
TTITLE10=Grab A Snatch
TTITLE11=Albert's Blues
EXTD=
EXTT0=Move Up To The Country
EXTT1=Sweet Momma
EXTT2=T-Bone Shuffle
EXTT3=Got To Have You
EXTT4=Time To Have A Party
EXTT5=Born In Chicago
EXTT6=Blues City
EXTT7=Black Cat Bone
EXTT8=Break'n My Back Blues
EXTT9=Teenie Weenie Bit
EXTT10=Grab A Snatch
EXTT11=Albert's Blues
PLAYORDER=
